<svg xmlns="http://www.w3.org/2000/svg" viewBox="0 0 64 64" aria-hidden="true">
  <circle cx="32" cy="32" r="30" fill="#25d366"/>
  <path fill="#fff" d="M18.5 47.5 21 38.8a17.7 17.7 0 1 1 6.9 6.6l-9.4 2.1Zm9.9-6.1.6.3a13.2 13.2 0 1 0-4.1-3.9l.4.7-1.2 4.1 4.3-1.2Z"/>
  <path fill="#fff" d="M39.9 34.9c-.4-.2-2.5-1.2-2.9-1.4-.4-.1-.7-.2-1 .2-.3.4-1.1 1.4-1.4 1.7-.3.3-.5.3-.9.1-.4-.2-1.8-.7-3.4-2.1-1.3-1.1-2.1-2.5-2.4-2.9-.2-.4 0-.7.2-.9l.7-.8c.2-.3.3-.5.5-.8.2-.3.1-.6 0-.8-.1-.2-1-2.4-1.4-3.3-.4-.9-.7-.8-1-.8h-.9c-.3 0-.8.1-1.2.6-.4.4-1.6 1.6-1.6 3.9s1.7 4.5 1.9 4.8c.2.3 3.4 5.2 8.2 7.2 1.1.5 2 .8 2.7 1 .9.3 1.8.2 2.5.1.8-.1 2.5-1 2.8-2 .3-1 .3-1.9.2-2.1-.1-.2-.4-.3-.8-.5Z"/>
</svg>
